<?xml version="1.0" standalone="no"?><!DOCTYPE svg PUBLIC "-//W3C//DTD SVG 1.1//EN" "http://www.w3.org/Graphics/SVG/1.1/DTD/svg11.dtd"><svg t="1520230699976" class="icon" style="" viewBox="0 0 1024 1024" version="1.1" xmlns="http://www.w3.org/2000/svg" p-id="4726" xmlns:xlink="http://www.w3.org/1999/xlink" width="200" height="200" fill="#FFFFFF"><defs><style type="text/css"></style></defs><path d="M877.714286 603.428571q0 22.857143-16 38.857143t-38.857143 16q-29.142857 0-45.714286-24.571429l-129.714286-194.857143-25.714286 0 0 75.428571 141.142857 234.857143q5.142857 8.571429 5.142857 18.857143 0 14.857143-10.857143 25.714286t-25.714286 10.857143l-109.714286 0 0 155.428571q0 26.285714-18.857143 45.142857t-45.142857 18.857143l-91.428571 0q-26.285714 0-45.142857-18.857143t-18.857143-45.142857l0-155.428571-109.714286 0q-14.857143 0-25.714286-10.857143t-10.857143-25.714286q0-10.285714 5.142857-18.857143l141.142857-234.857143 0-75.428571-25.714286 0-129.714286 194.857143q-16.571429 24.571429-45.714286 24.571429-22.857143 0-38.857143-16t-16-38.857143q0-16.571429 9.142857-30.285714l146.285714-219.428571q41.714286-61.142857 100.571429-61.142857l219.428571 0q58.857143 0 100.571429 61.142857l146.285714 219.428571q9.142857 13.714286 9.142857 30.285714zm-237.714286-457.142857q0 53.142857-37.428571 90.571429t-90.571429 37.428571-90.571429-37.428571-37.428571-90.571429 37.428571-90.571429 90.571429-37.428571 90.571429 37.428571 37.428571 90.571429z" p-id="4727"></path></svg>