<?xml version="1.0" standalone="no"?><!DOCTYPE svg PUBLIC "-//W3C//DTD SVG 1.1//EN" "http://www.w3.org/Graphics/SVG/1.1/DTD/svg11.dtd"><svg t="1519456257326" class="icon" style="" viewBox="0 0 1024 1024" version="1.1" xmlns="http://www.w3.org/2000/svg" p-id="11696" xmlns:xlink="http://www.w3.org/1999/xlink" width="200" height="200"><defs><style type="text/css"></style></defs><path d="M1004.39023 326.246095c-21.076319-25.227716-67.061016-41.194624-127.735269-2.554705a1149.617418 1149.617418 0 0 0-106.658949 77.599175L670.68184 282.816104A143.702177 143.702177 0 1 0 515.483489 224.05788H319.409852a31.933817 31.933817 0 0 0-25.227716 12.454189C287.476034 242.260156 159.740766 407.996667 131.00033 463.561509a95.801451 95.801451 0 0 0 24.58904 120.39049c27.782421 21.076319 74.405794 27.143745 121.667843-18.521613l52.052122-51.413446-66.42234 133.164017c-35.127199 19.798967-168.929893 95.801451-215.553266 123.264535S-5.676407 836.867831 4.542414 861.137532c14.689556 33.849846 63.867634 59.716238 163.501144 31.933818a1584.556008 1584.556008 0 0 0 164.139821-65.464326 31.933817 31.933817 0 0 0 6.706101-4.151396l143.702177-114.961742 140.508796 70.254398C542.946572 897.542084 542.946572 916.383036 542.946572 926.601858c0 46.623373 17.244261 81.750572 48.539402 93.246746a63.867634 63.867634 0 0 0 22.353672 4.151396c49.816755 0 95.801451-56.203518 113.365051-76.321823 78.55719-95.801451 127.735269-159.669086 127.735268-159.669086a31.933817 31.933817 0 0 0-4.470734-43.110653l-235.032894-205.653783 2.554705-4.151396 162.543129 101.549539a31.933817 31.933817 0 0 0 39.278596-4.151396c5.428749-5.109411 129.651298-127.735269 159.669085-159.669086 45.34602-52.052122 55.245504-110.171669 24.908378-146.576221zM635.554642 64.388794a79.834543 79.834543 0 1 1-79.834543 79.834543A79.834543 79.834543 0 0 1 635.554642 64.388794z m298.58119 360.532796c-23.311687 25.227716-104.423582 105.062258-140.828134 141.147472l-168.291216-105.062259a31.933817 31.933817 0 0 0-44.068668 10.218822l-33.849846 54.606827a31.933817 31.933817 0 0 0 6.067425 40.875286l232.797527 204.057092c-20.756981 26.824406-58.758224 75.04447-108.574978 135.080046-44.707344 53.648813-63.867634 53.329475-63.867634 53.329475a45.984697 45.984697 0 0 1-7.344778-29.69845 1284.378126 1284.378126 0 0 1 90.053364-144.97953 31.933817 31.933817 0 0 0-12.13485-46.623373l-191.602903-95.801451a31.933817 31.933817 0 0 0-34.169185 3.51272l-156.475704 125.180563A1490.989923 1490.989923 0 0 1 150.479959 830.800406a133.483356 133.483356 0 0 1-84.624616 5.428749 48.85874 48.85874 0 0 1 13.731542-11.176836c53.329475-31.933817 223.53672-127.735269 223.53672-127.735269a31.933817 31.933817 0 0 0 12.773527-13.412203l127.735268-255.470537A31.933817 31.933817 0 0 0 415.211303 383.726966h-31.933817a31.933817 31.933817 0 0 0-22.67301 9.580145s-71.851089 73.447779-127.735269 127.735269c-7.344778 7.344778-25.866392 22.992348-38.639919 13.412203a31.933817 31.933817 0 0 1-6.706101-39.278595c20.756981-38.959257 105.700935-152.643646 147.214897-206.611797h255.470537l150.088941 180.106729a31.933817 31.933817 0 0 0 22.034334 11.496174 31.933817 31.933817 0 0 0 23.631024-7.983455 1154.726829 1154.726829 0 0 1 123.903211-92.927408c23.950363-15.328232 40.555948-15.328232 44.707344-10.538159s5.428749 28.421097-20.437643 56.203518z" p-id="11697"></path></svg>