<?xml version="1.0" standalone="no"?><!DOCTYPE svg PUBLIC "-//W3C//DTD SVG 1.1//EN" "http://www.w3.org/Graphics/SVG/1.1/DTD/svg11.dtd"><svg t="1518080793858" class="icon" style="" viewBox="0 0 1024 1024" version="1.1" xmlns="http://www.w3.org/2000/svg" p-id="3553" xmlns:xlink="http://www.w3.org/1999/xlink" width="200" height="200" fill="#4A8294"><defs><style type="text/css"></style></defs><path d="M512 584.362667c106.538667 0 204.736-93.12 215.808-229.248C739.477333 212.714667 644.714667 78.442667 512 78.442667S284.501333 212.714667 296.192 355.114667c10.944 136.128 109.248 229.248 215.808 229.248zM510.122667 657.770667c-238.570667 0-431.744 94.890667-431.744 211.818666 0 39.850667 36.778667 55.274667 144.874666 66.944 83.562667 8.96 183.402667 8.96 288.768 8.96 107.84 0 214.997333 0 290.218667-8.96 106.538667-12.629333 143.424-27.093333 143.424-66.944-0.042667-116.928-197.12-211.818667-435.541333-211.818666z" p-id="3554"></path></svg>