<?xml version="1.0" standalone="no"?><!DOCTYPE svg PUBLIC "-//W3C//DTD SVG 1.1//EN" "http://www.w3.org/Graphics/SVG/1.1/DTD/svg11.dtd"><svg t="1518083701781" class="icon" style="" viewBox="0 0 1024 1024" version="1.1" xmlns="http://www.w3.org/2000/svg" p-id="19419" xmlns:xlink="http://www.w3.org/1999/xlink" width="200" height="200" fill="#4A8294"><defs><style type="text/css"></style></defs><path d="M63.814398 885.488343c0 41.268916 33.429367 74.697259 74.697259 74.697259l746.976686 0c41.270962 0 74.697259-33.429367 74.697259-74.697259L960.185602 325.255829c0-41.269939-33.42732-74.697259-74.697259-74.697259L736.092801 250.558569 736.092801 138.511657c0-41.269939-33.42732-74.697259-74.697259-74.697259L362.604458 63.814398c-41.268916 0-74.697259 33.42732-74.697259 74.697259l0 112.046912L138.511657 250.558569c-41.268916 0-74.697259 33.42732-74.697259 74.697259L63.814398 885.488343zM642.720204 250.558569 381.278773 250.558569l0-52.284807c0-22.778796 18.300808-41.08779 41.08779-41.08779l179.266873 0c22.788006 0 41.08779 18.307971 41.08779 41.08779L642.721227 250.558569zM328.993966 512l89.633437 0 0-89.633437c0-22.778796 18.300808-41.08779 41.08779-41.08779l104.569614 0c22.788006 0 41.08779 18.307971 41.08779 41.08779l0 89.633437 89.633437 0c22.788006 0 41.08779 18.307971 41.08779 41.08779l0 104.569614c0 22.776749-18.298761 41.08779-41.08779 41.08779L605.371574 698.745195l0 89.633437c0 22.776749-18.298761 41.08779-41.08779 41.08779L459.715193 829.466422c-22.786982 0-41.08779-18.310018-41.08779-41.08779l0-89.633437-89.633437 0c-22.786982 0-41.08779-18.310018-41.08779-41.08779L287.906176 553.086767C287.907199 530.307971 306.208007 512 328.993966 512z" p-id="19420"></path></svg>