<?xml version="1.0" standalone="no"?><!DOCTYPE svg PUBLIC "-//W3C//DTD SVG 1.1//EN" "http://www.w3.org/Graphics/SVG/1.1/DTD/svg11.dtd"><svg t="1520230730240" class="icon" style="" viewBox="0 0 1024 1024" version="1.1" xmlns="http://www.w3.org/2000/svg" p-id="5306" xmlns:xlink="http://www.w3.org/1999/xlink" width="200" height="200" fill="#FFFFFF"><defs><style type="text/css"></style></defs><path d="M804.571429 402.285714l0 237.714286q0 22.857143-16 38.857143t-38.857143 16-38.857143-16-16-38.857143l0-201.142857-36.571429 0 0 521.142857q0 26.285714-18.857143 45.142857t-45.142857 18.857143-45.142857-18.857143-18.857143-45.142857l0-265.142857-36.571429 0 0 265.142857q0 26.285714-18.857143 45.142857t-45.142857 18.857143-45.142857-18.857143-18.857143-45.142857l0-521.142857-36.571429 0 0 201.142857q0 22.857143-16 38.857143t-38.857143 16-38.857143-16-16-38.857143l0-237.714286q0-45.714286 32-77.714286t77.714286-32l365.714286 0q45.714286 0 77.714286 32t32 77.714286zm-164.571429-256q0 53.142857-37.428571 90.571429t-90.571429 37.428571-90.571429-37.428571-37.428571-90.571429 37.428571-90.571429 90.571429-37.428571 90.571429 37.428571 37.428571 90.571429z" p-id="5307"></path></svg>